<svg xmlns="http://www.w3.org/2000/svg" xmlns:xlink="http://www.w3.org/1999/xlink" width="150" height="150" viewBox="0 0 150 150"><defs><clipPath id="a"><rect width="150" height="150" transform="translate(587 184)" fill="#dc3545" stroke="#707070" stroke-width="1"/></clipPath></defs><g transform="translate(-587 -184)" clip-path="url(#a)"><g transform="translate(580.491 341.633)"><path d="M77.618-157.043a15.115,15.115,0,0,1-2.669.575,4.656,4.656,0,0,0-1.848.616c-.575.287-1.561.862-2.259,1.191-.657.37-1.52.821-1.848,1.027-.329.246-2.341,1.4-4.435,2.587-2.136,1.191-4.517,2.587-5.339,3.039-.821.493-2.669,1.519-4.107,2.259a22.593,22.593,0,0,0-3.039,1.889,1.514,1.514,0,0,1-.9.534c-.657,0-4.148,1.93-6.489,3.573a29.42,29.42,0,0,1-2.916,1.807c-.493.246-1.643.862-2.546,1.4s-2.177,1.273-2.875,1.6c-.657.37-1.52.821-1.848,1.027-.329.246-2.259,1.355-4.312,2.505-8.788,4.969-10.637,6.365-13.8,10.308-1.232,1.519-1.6,2.464-2.218,5.708-.7,3.573-.78,6.448-.78,32.649-.041,27.023,0,28.912.739,31.827a18.244,18.244,0,0,0,5.133,9.4,31.732,31.732,0,0,0,2.587,2.505c.123,0,1.848,1.027,3.86,2.259s4.23,2.546,4.887,2.875c.7.329,1.971,1.068,2.875,1.6s2.752,1.6,4.107,2.3A26.618,26.618,0,0,1,40.7-28.09a2.035,2.035,0,0,0,.945.575A16.137,16.137,0,0,1,46-24.6c0,.164.534.411,1.191.575a3.239,3.239,0,0,1,1.684.821,3.239,3.239,0,0,0,1.684.821,3.342,3.342,0,0,1,1.437.657,4.992,4.992,0,0,0,1.52.986,61.694,61.694,0,0,1,6.037,3.409c.78.493,1.889,1.109,2.464,1.4a7.541,7.541,0,0,1,1.643.986,31.285,31.285,0,0,0,3.2,1.889c1.437.739,3.532,1.848,4.682,2.464a16.669,16.669,0,0,0,3.326,1.4,9.589,9.589,0,0,1,2.3.9c1.314.9,7.392.862,8.747,0a7.731,7.731,0,0,1,2.3-.945A44.318,44.318,0,0,0,96.1-13.183c.329-.205,1.068-.575,1.643-.862a9.607,9.607,0,0,0,1.643-.986c.329-.246,1.725-1.068,3.08-1.807s3.2-1.807,4.107-2.341c.9-.493,2.218-1.232,2.957-1.561a4.992,4.992,0,0,0,1.52-.986,3.343,3.343,0,0,1,1.437-.657,3.239,3.239,0,0,0,1.684-.821,3.239,3.239,0,0,1,1.684-.821c.657-.164,1.191-.411,1.191-.575,0-.287,3.162-2.464,4.517-3.08.329-.164,1.355-.739,2.259-1.273s2.218-1.273,2.875-1.643c.7-.37,1.971-1.109,2.875-1.643.9-.575,2.218-1.314,2.875-1.643.7-.329,2.875-1.643,4.887-2.875s3.737-2.259,3.86-2.259c.493,0,5.092-5.175,5.955-6.735a25.4,25.4,0,0,0,1.766-4.8c.739-2.875.78-4.8.7-31.992-.123-36.509-.082-36.222-6.2-41.971a17.4,17.4,0,0,0-3.326-2.587c-.493-.123-.862-.411-.862-.616,0-.164-.493-.534-1.109-.78a18.9,18.9,0,0,1-2.793-1.478c-.9-.534-2.341-1.273-3.162-1.643-.862-.411-1.561-.862-1.561-1.068a.418.418,0,0,0-.452-.37c-.493,0-3.655-1.807-13.183-7.515-1.437-.862-2.875-1.725-3.2-1.93a7.628,7.628,0,0,0-1.643-.821,22.7,22.7,0,0,1-2.669-1.437c-.9-.534-2.177-1.273-2.875-1.643-.657-.329-1.971-1.109-2.875-1.643a31.178,31.178,0,0,0-2.875-1.6,7.141,7.141,0,0,1-1.561-.945c-.329-.329-4.6-2.793-7.064-4.066-.657-.329-1.684-.9-2.259-1.191a4.656,4.656,0,0,0-1.848-.616,14.96,14.96,0,0,1-2.834-.616A13.083,13.083,0,0,0,77.618-157.043Zm9.076,14.25c4.107,2.3,7.926,4.517,9.528,5.5l1.561.986-.862,1.109a17.491,17.491,0,0,1-5.133,3.573c-.657.37-1.971,1.109-2.875,1.684-.9.534-2.177,1.314-2.875,1.643-.657.329-1.684.9-2.259,1.191a4.652,4.652,0,0,1-4.517,0c-.575-.329-1.4-.739-1.889-.986a33.735,33.735,0,0,1-4.476-2.834,10.852,10.852,0,0,0-1.725-.862c-.739-.287-1.355-.657-1.355-.821s-.616-.493-1.355-.78a6.047,6.047,0,0,1-2.259-1.684l-.9-1.232.9-.616a3.387,3.387,0,0,1,1.4-.657.79.79,0,0,0,.657-.329,43.125,43.125,0,0,1,7.228-4.189,4.536,4.536,0,0,0,1.4-.78C79.384-144.887,83-144.846,86.694-142.792ZM53.8-126.735a7.541,7.541,0,0,0,1.643.986c.575.287,1.766.945,2.669,1.52.9.534,2.218,1.314,2.875,1.643.7.37,1.889,1.068,2.752,1.561.821.493,2.546,1.52,3.9,2.259,1.314.739,2.669,1.52,3,1.725s1.807,1.068,3.285,1.889a17.715,17.715,0,0,1,2.957,1.971c.411.616,8.871.616,9.281,0a5.912,5.912,0,0,1,1.52-1.15c.7-.37,1.971-1.109,2.875-1.684.9-.534,2.752-1.561,4.107-2.259,1.355-.739,2.71-1.52,3-1.725a23.82,23.82,0,0,1,4.312-2.382c.616-.287,1.109-.657,1.109-.821s.7-.616,1.561-.986a29.983,29.983,0,0,0,3.162-1.684c2.218-1.355,3.409-1.848,4.271-1.848a22.292,22.292,0,0,1,5.791,2.834,9.742,9.742,0,0,0,1.643.945,62.556,62.556,0,0,1,8.378,4.846,1.316,1.316,0,0,1-.452,2.341,2.681,2.681,0,0,0-.945.575,65.6,65.6,0,0,1-6.982,3.984,7.069,7.069,0,0,0-1.643.986,7.47,7.47,0,0,1-1.643.945c-.78.37-2.177,1.109-3.08,1.643s-2.177,1.273-2.875,1.6c-.657.37-1.93,1.068-2.752,1.6-1.273.78-5.421,3.244-7.31,4.394-.329.205-1.684.986-3.039,1.725-1.314.739-3.08,1.766-3.9,2.259s-1.971,1.109-2.587,1.4c-.657.246-1.15.616-1.15.78,0,.205-.657.575-1.437.821s-1.437.616-1.437.821c0,.164-.739.616-1.6.945a5.683,5.683,0,0,0-1.889,1.109c-.37.575-2.916.534-3.573-.123a27.8,27.8,0,0,0-4.641-2.752c-.9-.452-2.177-1.191-2.875-1.643a12.462,12.462,0,0,0-2.259-1.232,8.652,8.652,0,0,1-1.561-.945,31.867,31.867,0,0,0-3.162-1.93c-6.119-3.409-8.214-4.682-8.337-5.01a.769.769,0,0,0-.616-.329,31.966,31.966,0,0,1-4.189-2.259c-2.012-1.232-4.394-2.546-5.216-2.916-.862-.37-1.561-.821-1.561-1.027s-.246-.37-.493-.37c-.452,0-2.834-1.355-8.624-4.846a4.544,4.544,0,0,1-1.355-1.232c-.287-.78,1.355-2.136,4.764-3.942,1.684-.862,3.778-2.012,4.682-2.546.9-.493,2.094-1.15,2.669-1.4a6.259,6.259,0,0,0,1.643-1.027A4.848,4.848,0,0,1,53.8-126.735ZM28.953-105.544a5.762,5.762,0,0,0,1.561,1.068,62.493,62.493,0,0,1,5.832,3.244c.9.534,2.218,1.273,2.875,1.643a32.476,32.476,0,0,1,2.875,1.643c.9.575,2.218,1.355,2.875,1.684.7.329,1.93,1.027,2.752,1.52,7.844,4.641,12.936,7.6,14.209,8.255a8.1,8.1,0,0,1,1.725,1.068,2.441,2.441,0,0,0,1.15.575,20.773,20.773,0,0,1,2.957,1.6c1.109.739,3.039,1.93,4.312,2.71A9.811,9.811,0,0,1,74.743-78.4c.452.78.575,52.4.164,53.511-.123.37-.411.657-.575.657a21.622,21.622,0,0,1-4.723-2.259c-.9-.534-2.177-1.273-2.875-1.6-.657-.37-1.971-1.109-2.875-1.684-.9-.534-2.177-1.273-2.875-1.6a7.956,7.956,0,0,1-3.45-3c-.287-.616-.452-5.667-.452-15.811,0-8.214-.164-15.606-.37-16.427-.37-1.561-1.971-3.942-2.71-3.984a5.1,5.1,0,0,1-1.437-.78c-1.068-.78-5.791-3.491-7.392-4.271a7.541,7.541,0,0,1-1.643-.986c-.329-.246-1.643-1.027-2.875-1.684A54.265,54.265,0,0,1,35.113-81.6c-.246-.164-1.684-.986-3.2-1.766A30.122,30.122,0,0,1,27.8-85.873l-1.314-1.109.082-9.076c.041-4.969.205-9.24.329-9.487A1.516,1.516,0,0,1,28.953-105.544Zm107.474,3.08c.287,3.532-.041,15.524-.452,16.14a26.751,26.751,0,0,1-3.737,2.3c-1.93,1.068-3.778,2.136-4.107,2.341-.329.164-2.423,1.4-4.641,2.71s-4.723,2.793-5.544,3.285-2.053,1.191-2.752,1.52c-.657.37-1.971,1.109-2.875,1.684-.9.534-2.094,1.232-2.669,1.52a6.437,6.437,0,0,0-3.244,3.9c-.287.945-.452,7.351-.452,16.386,0,9.363-.164,15.277-.452,16.016-.493,1.355-1.15,1.848-9.9,6.817-3.778,2.177-6.735,3.614-7.1,3.45-.534-.205-.616-3.409-.616-27.023V-78.193l.9-.945a3.052,3.052,0,0,1,1.232-.945,1.752,1.752,0,0,0,.862-.452,86.9,86.9,0,0,1,8.5-4.969,26.351,26.351,0,0,0,2.875-1.6c.123-.123,1.478-.945,3-1.848,1.561-.862,3.491-2.012,4.312-2.505.862-.493,2.094-1.191,2.752-1.561.7-.37,1.971-1.109,2.875-1.684.9-.534,2.218-1.314,2.875-1.643.7-.329,1.93-1.027,2.752-1.52s3.244-1.889,5.339-3.08,4.107-2.382,4.435-2.587a19.906,19.906,0,0,1,1.93-.986,5.238,5.238,0,0,0,1.561-1.027,1.267,1.267,0,0,1,1.15-.329C136.057-105.749,136.181-105.421,136.427-102.464ZM31.335-68.665c2.834,1.52,6.037,3.368,9.24,5.3.862.493,1.93,1.15,2.464,1.4a2.7,2.7,0,0,1,1.15,1.4c.452,1.807,0,17.782-.534,18.316-.575.575-.9.411-9.158-4.353-7.885-4.517-8.46-5.708-8.008-16.427.164-3.614.37-6.694.452-6.858C27.351-70.513,28.419-70.226,31.335-68.665Zm105.092,3.573c.329,5.092.082,10.8-.534,12.444-.739,1.93-2.3,3.08-10.6,7.885-2.793,1.6-5.3,2.834-5.585,2.71-.287-.082-.616-.78-.78-1.478-.329-1.848-.287-16.961.082-17.454.411-.575,2.628-1.971,7.885-5.01,5.667-3.244,7.639-4.189,8.419-4.107C136.057-70.02,136.181-69.61,136.427-65.092Z" fill="#dc3545"/></g></g></svg>