<svg fill="red" xmlns="http://www.w3.org/2000/svg" xmlns:xlink="http://www.w3.org/1999/xlink" width="150" height="150" viewBox="0 0 150 150">
  <defs>
    <clipPath id="clip-path">
      <rect id="Rectangle_2" data-name="Rectangle 2" width="150" height="150" transform="translate(394 184)" fill="#fff"/>
    </clipPath>
  </defs>
  <g id="Mask_Group_1" data-name="Mask Group 1" transform="translate(-394 -184)" clip-path="url(#clip-path)">
    <path id="github-square-brands" d="M133.929,10.714H16.071A16.076,16.076,0,0,0,0,26.786V144.643a16.076,16.076,0,0,0,16.071,16.071H133.929A16.076,16.076,0,0,0,150,144.643V26.786A16.076,16.076,0,0,0,133.929,10.714ZM92.846,139.185c-2.812.5-3.85-1.239-3.85-2.679,0-1.808.067-11.049.067-18.516,0-5.223-1.741-8.538-3.783-10.279,12.388-1.373,25.446-3.08,25.446-24.475,0-6.094-2.176-9.141-5.725-13.058.569-1.44,2.478-7.366-.569-15.067-4.654-1.44-15.3,5.993-15.3,5.993a52.672,52.672,0,0,0-27.857,0s-10.647-7.433-15.3-5.993C42.924,62.779,44.8,68.705,45.4,70.179c-3.549,3.917-5.223,6.964-5.223,13.058,0,21.295,12.489,23.1,24.877,24.475a12.136,12.136,0,0,0-3.549,7.467c-3.181,1.44-11.317,3.917-16.172-4.654A11.665,11.665,0,0,0,36.8,104.8c-5.424-.067-.368,3.415-.368,3.415,3.616,1.674,6.161,8.1,6.161,8.1,3.248,9.944,18.783,6.6,18.783,6.6,0,4.654.067,12.221.067,13.594,0,1.44-1,3.181-3.85,2.679a55.548,55.548,0,0,1-37.567-53c0-30.737,23.5-54.074,54.241-54.074s55.647,23.337,55.647,54.074C129.944,110.759,114.944,131.819,92.846,139.185ZM60,118.728c-.636.134-1.239-.134-1.306-.569-.067-.5.368-.937,1-1.071.636-.067,1.239.2,1.306.636.1.435-.335.871-1,1Zm-3.181-.3c0,.435-.5.8-1.172.8-.737.067-1.239-.3-1.239-.8,0-.435.5-.8,1.172-.8C56.217,117.556,56.819,117.924,56.819,118.426Zm-4.587-.368c-.134.435-.8.636-1.373.435-.636-.134-1.071-.636-.937-1.071s.8-.636,1.373-.5c.67.2,1.1.7.938,1.138Zm-4.118-1.808c-.3.368-.937.3-1.44-.2-.5-.435-.636-1.071-.3-1.373.3-.368.938-.3,1.44.2C48.248,115.313,48.415,115.982,48.114,116.25ZM45.067,113.2c-.3.2-.871,0-1.239-.5s-.368-1.071,0-1.306c.368-.3.938-.067,1.239.435A.981.981,0,0,1,45.067,113.2Zm-2.176-3.248c-.3.3-.8.134-1.172-.2-.368-.435-.435-.937-.134-1.172.3-.3.8-.134,1.172.2C43.125,109.219,43.192,109.721,42.891,109.955Zm-2.243-2.478a.631.631,0,0,1-.938.134c-.435-.2-.636-.569-.5-.871a.788.788,0,0,1,.938-.134C40.58,106.842,40.781,107.21,40.647,107.478Z" transform="translate(394 173.286)"/>
  </g>
</svg>
