<svg fill="#dc3545" xmlns="http://www.w3.org/2000/svg" xmlns:xlink="http://www.w3.org/1999/xlink" width="150" height="150" viewBox="0 0 150 150">
  <defs>
    <clipPath id="clip-path">
      <rect id="Rectangle_3" data-name="Rectangle 3" width="150" height="150" transform="translate(587 184)" fill="#fff"/>
    </clipPath>
  </defs>
  <g id="Mask_Group_2" data-name="Mask Group 2" transform="translate(-587 -184)" clip-path="url(#clip-path)">
    <path id="linkedin-brands" d="M139.286,10.714H10.681A10.761,10.761,0,0,0,0,21.529V149.9a10.761,10.761,0,0,0,10.681,10.815h128.6A10.789,10.789,0,0,0,150,149.9V21.529a10.789,10.789,0,0,0-10.714-10.815ZM45.335,139.286H23.1V67.7H45.368v71.585ZM34.219,57.924A12.891,12.891,0,1,1,47.109,45.033,12.9,12.9,0,0,1,34.219,57.924Zm94.453,81.362H106.44V104.464c0-8.3-.167-18.984-11.551-18.984-11.585,0-13.359,9.04-13.359,18.382v35.424H59.3V67.7H80.625v9.777h.3c2.98-5.625,10.246-11.551,21.06-11.551,22.5,0,26.685,14.833,26.685,34.118Z" transform="translate(587 173.286)"/>
  </g>
</svg>
